# xmcd CD database file
#
# Track frame offsets:
#	150
#	9850
#	20932
#	28025
#	37300
#	56972
#	65420
#	71720
#	78032
#	88842
#	98887
#	106500
#	117020
#	136955
#	144840
#
# Disc length: 2081 seconds
#
# Revision: 2
# Processed by: cddbd v1.5.2PL0 Copyright (c) Steve Scherf et al.
# Submitted via: jetAudio 5
#
DISCID=c6081f0f
DTITLE=Tom Ball - Guitar Music
DYEAR=1900
DGENRE=
TTITLE0=Estudio Sin Luz (excerpt)
TTITLE1=Variation On A Forlorn Hope Fancy
TTITLE2=Sweet Papa Lowdown
TTITLE3=Fantasia #30
TTITLE4=Joseph Spence Medley
TTITLE5=Cane Break Blues
TTITLE6=Heigh Ho Holiday
TTITLE7=Variation On A Barrios Prelude
TTITLE8=Morley's Pavan
TTITLE9=Mirabella
TTITLE10=Volt #6
TTITLE11=Old Time Medley
TTITLE12=Sarabande
TTITLE13=Needed Time
TTITLE14=Lejania (Distance)
EXTD=
EXTT0=
EXTT1=
EXTT2=
EXTT3=
EXTT4=
EXTT5=
EXTT6=
EXTT7=
EXTT8=
EXTT9=
EXTT10=
EXTT11=
EXTT12=
EXTT13=
EXTT14=
PLAYORDER=
